<?xml version="1.0" encoding="utf-8"?>
<!-- Generator: Adobe Illustrator 28.1.0, SVG Export Plug-In . SVG Version: 6.00 Build 0)  -->
<svg version="1.1" id="Layer_1" xmlns="http://www.w3.org/2000/svg" xmlns:xlink="http://www.w3.org/1999/xlink" x="0px" y="0px"
	 viewBox="0 0 250 135" style="enable-background:new 0 0 250 135;" xml:space="preserve">
<style type="text/css">
	.st0{fill:#EB8A21;}
</style>
<g>
	<path class="st0" d="M241.2,78.5v39.3c0,9-7.3,16.2-16.2,16.2H25c-9,0-16.2-7.3-16.2-16.2V78.5h47v0h8.2c4.1,0,6.1-1.2,6.1-3.7
		c0-2.4-2-3.7-6.1-3.7h-11c-8.1,0-12.2-3.7-12.2-11c0-7.3,4.1-11,12.2-11h24.4v7.3H54.2c-4.1,0-6.1,1.2-6.1,3.7c0,2.4,2,3.7,6.1,3.7
		h11c8.1,0,12.2,3.7,12.2,11c0,7.3-4.1,11-12.2,11H16.2v32c0,4.8,3.9,8.8,8.8,8.8h200c4.8,0,8.8-3.9,8.8-8.8V78.5H241.2z"/>
	<path class="st0" d="M121.3,78.5v7.3H96.9c-8.1,0-12.2-4.1-12.2-12.2V61.4c0-8.1,4.1-12.2,12.2-12.2h24.4v7.3H97.9
		c-3.9,0-5.9,2-5.9,5.9v10.2c0,3.9,2,5.9,5.9,5.9H121.3z"/>
	<path class="st0" d="M165.2,78.5v7.3h-24.4c-8.1,0-12.2-4.1-12.2-12.2V61.4c0-8.1,4.1-12.2,12.2-12.2h24.4v7.3h-23.4
		c-3.9,0-5.9,2-5.9,5.9v10.2c0,3.9,2,5.9,5.9,5.9H165.2z"/>
	<path class="st0" d="M241.2,17.8v38.7h-32v0H186c-4.1,0-6.1,1.2-6.1,3.7c0,2.4,2,3.7,6.1,3.7h11c8.1,0,12.2,3.7,12.2,11
		c0,7.3-4.1,11-12.2,11h-24.4v-7.3h23.2c4.1,0,6.1-1.2,6.1-3.7c0-2.4-2-3.7-6.1-3.7h-11c-8.1,0-12.2-3.7-12.2-11
		c0-7.3,4.1-11,12.2-11h20.4v0h28.6V17.8c0-4.8-3.9-8.8-8.8-8.8H25c-4.8,0-8.8,3.9-8.8,8.8v38.7H8.7V17.8C8.7,8.9,16,1.6,25,1.6h200
		C233.9,1.6,241.2,8.9,241.2,17.8z"/>
</g>
</svg>
