<?xml version="1.0" encoding="utf-8"?>
<!-- Generator: Adobe Illustrator 28.1.0, SVG Export Plug-In . SVG Version: 6.00 Build 0)  -->
<svg version="1.1" id="Layer_1" xmlns="http://www.w3.org/2000/svg" xmlns:xlink="http://www.w3.org/1999/xlink" x="0px" y="0px"
	 viewBox="0 0 150 150" style="enable-background:new 0 0 150 150;" xml:space="preserve">
<style type="text/css">
	.st0{fill:#EB8A21;}
</style>
<g>
	<path class="st0" d="M142.3,24v45.3h-8.5V24c0-4.1-3.4-7.5-7.5-7.5H23.8c-4.1,0-7.5,3.4-7.5,7.5v37.5h18.7v0h21.7
		c4.4,0,6.5-1.3,6.5-3.9c0-2.6-2.2-3.9-6.5-3.9H45c-8.7,0-13.1-3.9-13.1-11.8c0-7.8,4.4-11.8,13.1-11.8h26.1V38H46.3
		c-4.4,0-6.5,1.3-6.5,3.9c0,2.6,2.2,3.9,6.5,3.9h11.8c8.7,0,13.1,3.9,13.1,11.8c0,7.8-4.4,11.8-13.1,11.8H31.9v0H7.8V24
		c0-8.8,7.2-16,16-16h102.5C135.1,8,142.3,15.2,142.3,24z"/>
	<path class="st0" d="M93.1,38h25.1v-7.8H92.1c-8.7,0-13.1,4.4-13.1,13.1v13.1c0,8.7,4.4,13.1,13.1,13.1h26.1v-7.8h-25
		c-4.2,0-6.3-2.1-6.3-6.3v-11C86.8,40.1,88.9,38,93.1,38z"/>
	<path class="st0" d="M46.1,88.4h25.1v-7.8H45c-8.7,0-13.1,4.4-13.1,13.1v13.1c0,8.7,4.4,13.1,13.1,13.1h26.1v-7.8h-25
		c-4.2,0-6.3-2.1-6.3-6.3v-11C39.8,90.5,41.9,88.4,46.1,88.4z"/>
	<path class="st0" d="M142.3,80.5v46c0,8.8-7.2,16-16,16H23.8c-8.8,0-16-7.2-16-16v-46h8.5v46c0,4.1,3.4,7.5,7.5,7.5h102.5
		c4.1,0,7.5-3.4,7.5-7.5V88.4h-15.6v0H93.4c-4.4,0-6.5,1.3-6.5,3.9c0,2.6,2.2,3.9,6.5,3.9h11.8c8.7,0,13.1,3.9,13.1,11.8
		c0,7.8-4.4,11.8-13.1,11.8H79v-7.8h24.8c4.4,0,6.5-1.3,6.5-3.9c0-2.6-2.2-3.9-6.5-3.9H92.1c-8.7,0-13.1-3.9-13.1-11.8
		c0-7.8,4.4-11.8,13.1-11.8h23v0H142.3z"/>
</g>
</svg>
